<svg width="80" height="80" viewBox="0 0 80 80" fill="none" xmlns="http://www.w3.org/2000/svg">
<rect width="80" height="80" rx="20" fill="#F8F8F8"/>
<circle cx="39.4999" cy="39.5" r="16.6667" fill="black"/>
<rect x="37" y="7" width="5" height="11.6667" rx="2.5" fill="black"/>
<rect x="37" y="60.3333" width="5" height="11.6667" rx="2.5" fill="black"/>
<rect x="60.3333" y="42" width="5" height="11.6667" rx="2.5" transform="rotate(-90 60.3333 42)" fill="black"/>
<rect x="7" y="42" width="5" height="11.6667" rx="2.5" transform="rotate(-90 7 42)" fill="black"/>
<rect x="14.5" y="18.0355" width="5" height="11.6667" rx="2.5" transform="rotate(-45 14.5 18.0355)" fill="black"/>
<rect x="52.8333" y="56.3689" width="5" height="11.6667" rx="2.5" transform="rotate(-45 52.8333 56.3689)" fill="black"/>
<rect x="61.0828" y="14.5" width="5" height="11.6667" rx="2.5" transform="rotate(45 61.0828 14.5)" fill="black"/>
<rect x="22.7495" y="52.8333" width="5" height="11.6667" rx="2.5" transform="rotate(45 22.7495 52.8333)" fill="black"/>
</svg>
